<?xml version="1.0" encoding="iso-8859-1"?>
<!-- Generator: Adobe Illustrator 19.1.1, SVG Export Plug-In . SVG Version: 6.00 Build 0)  -->
<svg xmlns="http://www.w3.org/2000/svg" xmlns:xlink="http://www.w3.org/1999/xlink" version="1.1" id="Layer_1" x="0px" y="0px" viewBox="0 0 48 48" style="enable-background:new 0 0 48 48;" xml:space="preserve">
<polyline style="fill:none;stroke:#CFD8DC;stroke-width:12;stroke-linecap:round;stroke-linejoin:round;stroke-miterlimit:10;" points="  10,23 24,9 38,23 "/>
<line style="fill:none;stroke:#CFD8DC;stroke-width:12;stroke-linecap:round;stroke-linejoin:round;stroke-miterlimit:10;" x1="24" y1="39" x2="24" y2="13"/>
<circle style="fill:#FFFFFF;" cx="24" cy="18" r="8"/>
<path style="fill:#FF3D00;" d="M32,18H16c0-4.418,3.582-8,8-8S32,13.582,32,18z"/>
<path style="fill:#455A64;" d="M16,18c0,0.339,0.028,0.672,0.069,1h15.862C31.972,18.672,32,18.339,32,18s-0.028-0.672-0.069-1  H16.069C16.028,17.328,16,17.661,16,18z"/>
<circle style="fill:#455A64;" cx="24" cy="18" r="4"/>
<circle style="fill:#FFFFFF;" cx="24" cy="18" r="2"/>
</svg>
